<?xml version="1.0" encoding="utf-8"?><svg width="727" height="284" viewBox="0 0 727 284" fill="none" xmlns="http://www.w3.org/2000/svg">
<path d="M163.85 161.68C152.83 173.89 134.01 174.85 121.8 163.83C109.59 152.82 108.61 133.98 119.61 121.77C130.63 109.56 149.46 108.61 161.67 119.62C173.88 130.64 174.86 149.47 163.85 161.68Z" fill="url(#paint0_radial_638_387)"/>
<path d="M56.4908 28.5C37.0108 43.19 21.4409 62.8 11.6309 85.47C23.4109 88.37 58.6709 99.85 74.8509 143.53C79.7209 141.94 90.2108 135.83 97.4808 112.23C107.241 80.63 125.751 50.24 149.761 40.03C125.811 16.35 94.2708 10.77 56.4908 28.5Z" fill="url(#paint1_linear_638_387)"/>
<path d="M250.89 51.35C250.89 51.34 250.89 51.34 250.89 51.35C224.9 19.98 185.65 0 141.74 0C109.74 0 80.2102 10.61 56.4902 28.5C108.94 3.89 149.37 24.19 174.12 75.51C213.55 82.58 240.33 62.96 250.89 51.35Z" fill="url(#paint2_linear_638_387)"/>
<path d="M86.3203 272.16C108.78 281.69 133.55 285.37 158.09 282.53C154.72 270.88 147.02 234.6 176.76 198.75C172.95 195.33 162.42 189.3 138.34 194.8C106.1 202.15 70.5203 201.31 49.6803 185.62C41.1303 218.19 52.0703 248.3 86.3203 272.16Z" fill="url(#paint3_linear_638_387)"/>
<path d="M8.90064 92.3701H8.89066C-5.26934 130.56 -2.94934 174.55 19.0107 212.58C35.0107 240.3 58.9607 260.56 86.3207 272.16C38.7807 239.04 36.1507 193.87 68.2107 146.77C54.6107 109.09 24.2306 95.7001 8.90064 92.3701Z" fill="url(#paint4_linear_638_387)"/>
<path d="M282.401 124.49C279.421 100.27 270.221 76.9904 255.491 57.1504C247.091 65.9004 219.521 90.7004 173.611 82.8704C172.551 87.8804 172.601 100.02 189.401 118.12C211.881 142.37 228.951 173.6 225.781 199.5C258.261 190.61 278.861 166.08 282.401 124.49Z" fill="url(#paint5_linear_638_387)"/>
<path d="M165.421 281.44C205.581 274.62 242.501 250.61 264.461 212.58C280.461 184.86 286.041 153.99 282.401 124.5C277.481 182.23 239.691 207.1 182.881 202.88C157.041 233.49 160.641 266.49 165.421 281.44Z" fill="url(#paint6_linear_638_387)"/>
<path d="M329.581 29.7598H326.751V253.7H329.581V29.7598Z" fill="#414042"/>
<path d="M378.391 128.89H372.861V85.9004H395.651V91.0604H378.391V128.89Z" fill="#414042"/>
<path d="M414.071 128.89H408.541V85.9004H421.191C430.961 85.9004 437.101 89.9504 437.101 99.2904C437.101 108.2 430.961 113.05 420.701 113.05H414.071V128.89ZM414.071 107.89H420.701C427.521 107.89 431.201 105.13 431.201 99.4104C431.201 93.5104 427.511 91.0604 420.701 91.0604H414.071V107.89Z" fill="#414042"/>
<path d="M483.901 128.89H478.371V94.2504L457.491 128.89H451.231V85.9004H456.761V120.54L477.641 85.9004H483.901V128.89Z" fill="#414042"/>
<path d="M533.892 128.89H528.362V109.11H506.622V128.89H501.092V85.9004H506.622V104.08H528.362V85.9004H533.892V128.89Z" fill="#414042"/>
<path d="M574.291 117.41H555.931L551.751 128.89H546.161L562.561 85.9004H568.091L584.181 128.89H578.411L574.291 117.41ZM557.711 112.37H572.511L565.321 92.1604H565.071L557.711 112.37Z" fill="#414042"/>
<path d="M607.332 128.89H601.802V91.0604H589.092V85.9004H620.042V91.0604H607.332V128.89Z" fill="#414042"/>
<path d="M629.871 107.4C629.871 93.6401 637.791 85.29 649.161 85.29C661.931 85.29 668.811 94.3801 668.811 107.4C668.811 122.02 660.581 129.51 649.341 129.51C637.421 129.51 629.871 121.03 629.871 107.4ZM662.911 107.4C662.911 95.6101 657.631 90.45 649.151 90.45C641.601 90.45 635.761 95.9201 635.761 107.4C635.761 118.7 641.411 124.35 649.891 124.35C657.931 124.35 662.911 118.51 662.911 107.4Z" fill="#414042"/>
<path d="M726.161 128.89H720.632L717.992 95.3004L707.122 128.89H701.352L690.542 95.4204L687.842 128.89H682.312L686.002 85.9004H692.761L704.372 122.87L715.732 85.9004H722.492L726.161 128.89Z" fill="#414042"/>
<path d="M377.291 194.91H372.861V160.48H382.991C390.811 160.48 395.731 163.73 395.731 171.2C395.731 178.33 390.811 182.22 382.601 182.22H377.291V194.91ZM377.291 178.09H382.601C388.061 178.09 391.011 175.88 391.011 171.3C391.011 166.58 388.061 164.61 382.601 164.61H377.291V178.09Z" fill="#035FA2"/>
<path d="M405.071 177.7C405.071 166.68 411.411 160 420.511 160C430.741 160 436.251 167.28 436.251 177.7C436.251 189.41 429.661 195.4 420.661 195.4C411.121 195.4 405.071 188.62 405.071 177.7ZM431.531 177.7C431.531 168.26 427.301 164.13 420.511 164.13C414.461 164.13 409.791 168.51 409.791 177.7C409.791 186.75 414.311 191.27 421.101 191.27C427.551 191.27 431.531 186.6 431.531 177.7Z" fill="#035FA2"/>
<path d="M471.272 193.98C469.402 194.87 466.752 195.41 463.752 195.41C453.032 195.41 446.592 188.72 446.592 178.15C446.592 166.45 453.182 160 463.462 160C467.392 160 469.712 160.69 471.332 161.33L470.492 165.22C468.332 164.43 466.062 164.14 463.902 164.14C455.742 164.14 451.312 168.86 451.312 177.71C451.312 186.27 456.282 191.28 464.342 191.28C466.502 191.28 468.822 190.89 470.542 190.05L471.272 193.98Z" fill="#035FA2"/>
<path d="M502.202 185.72H487.502L484.162 194.92H479.682L492.812 160.49H497.242L510.122 194.92H505.502L502.202 185.72ZM488.922 181.68H500.772L495.022 165.5H494.822L488.922 181.68Z" fill="#035FA2"/>
<path d="M528.162 194.91H523.732V164.62H513.552V160.49H538.342V164.62H528.162V194.91Z" fill="#035FA2"/>
<path d="M545.711 177.7C545.711 166.68 552.051 160 561.151 160C571.381 160 576.891 167.28 576.891 177.7C576.891 189.41 570.301 195.4 561.301 195.4C551.761 195.4 545.711 188.62 545.711 177.7ZM572.171 177.7C572.171 168.26 567.941 164.13 561.151 164.13C555.101 164.13 550.431 168.51 550.431 177.7C550.431 186.75 554.951 191.27 561.741 191.27C568.191 191.27 572.171 186.6 572.171 177.7Z" fill="#035FA2"/>
<path d="M622.332 194.91H617.902L615.792 168.01L607.092 194.91H602.472L593.812 168.11L591.652 194.91H587.222L590.172 160.48H595.582L604.872 190.09L613.972 160.48H619.382L622.332 194.91Z" fill="#035FA2"/>
<defs>
<radialGradient id="paint0_radial_638_387" cx="0" cy="0" r="1" gradientUnits="userSpaceOnUse" gradientTransform="translate(132.135 125.087) scale(41.9066 41.9066)">
<stop stop-color="#4495D1"/>
<stop offset="1" stop-color="#15256D"/>
</radialGradient>
<linearGradient id="paint1_linear_638_387" x1="41.2298" y1="121.703" x2="111.7" y2="13.1882" gradientUnits="userSpaceOnUse">
<stop stop-color="#4495D1"/>
<stop offset="1" stop-color="#15256D"/>
</linearGradient>
<linearGradient id="paint2_linear_638_387" x1="69.3574" y1="-3.3585" x2="244.415" y2="67.3694" gradientUnits="userSpaceOnUse">
<stop stop-color="#4495D1"/>
<stop offset="1" stop-color="#15256D"/>
</linearGradient>
<linearGradient id="paint3_linear_638_387" x1="174.64" y1="238.812" x2="45.4396" y2="232.043" gradientUnits="userSpaceOnUse">
<stop stop-color="#4495D1"/>
<stop offset="1" stop-color="#15256D"/>
</linearGradient>
<linearGradient id="paint4_linear_638_387" x1="52.2831" y1="276.986" x2="26.0027" y2="90.0083" gradientUnits="userSpaceOnUse">
<stop stop-color="#4495D1"/>
<stop offset="1" stop-color="#15256D"/>
</linearGradient>
<linearGradient id="paint5_linear_638_387" x1="209.354" y1="64.6587" x2="268.093" y2="179.943" gradientUnits="userSpaceOnUse">
<stop stop-color="#4495D1"/>
<stop offset="1" stop-color="#15256D"/>
</linearGradient>
<linearGradient id="paint6_linear_638_387" x1="303.593" y1="151.547" x2="154.808" y2="267.787" gradientUnits="userSpaceOnUse">
<stop stop-color="#4495D1"/>
<stop offset="1" stop-color="#15256D"/>
</linearGradient>
</defs>
</svg>
